<?xml version="1.0" standalone="no"?>
<!DOCTYPE svg PUBLIC "-//W3C//DTD SVG 20010904//EN"
 "http://www.w3.org/TR/2001/REC-SVG-20010904/DTD/svg10.dtd">
<svg version="1.0" xmlns="http://www.w3.org/2000/svg"
 width="512.000000pt" height="512.000000pt" viewBox="0 0 512.000000 512.000000"
 preserveAspectRatio="xMidYMid meet">

<g transform="translate(0.000000,512.000000) scale(0.100000,-0.100000)"
fill="#000000" stroke="none">
<path d="M2467 5106 c-68 -18 -121 -59 -198 -151 -114 -136 -158 -144 -325
-62 -105 50 -111 52 -194 52 -71 0 -94 -4 -140 -26 -61 -29 -123 -86 -150
-139 -10 -19 -32 -82 -49 -140 -25 -87 -36 -111 -65 -137 -44 -41 -104 -57
-183 -50 -131 13 -246 -25 -320 -106 -90 -98 -112 -179 -89 -335 21 -142 20
-168 -8 -227 -25 -54 -65 -94 -127 -125 -21 -11 -54 -37 -74 -57 -58 -60 -78
-107 -83 -199 -4 -72 -1 -89 20 -136 14 -30 41 -70 60 -89 33 -34 362 -239
556 -349 184 -103 378 -187 581 -249 57 -18 101 -34 100 -36 -2 -2 -49 -15
-104 -29 -208 -53 -419 -136 -598 -237 -181 -101 -500 -303 -535 -337 -19 -20
-46 -60 -60 -90 -21 -47 -24 -64 -20 -136 7 -123 49 -187 178 -268 68 -43 83
-60 111 -123 23 -52 23 -43 1 -267 -12 -123 13 -200 91 -285 43 -47 108 -85
167 -98 19 -4 87 -9 150 -10 127 -1 158 -11 204 -65 14 -17 30 -50 36 -73 27
-108 56 -183 85 -221 71 -93 175 -142 289 -134 48 3 85 15 171 56 172 81 207
74 324 -63 91 -106 122 -128 214 -152 56 -15 76 -16 133 -6 91 16 144 51 236
158 118 138 155 145 324 63 105 -51 111 -53 194 -53 71 0 94 4 140 26 61 29
123 86 150 139 10 19 32 82 49 140 25 87 36 111 65 137 44 41 104 57 183 50
131 -13 246 25 320 106 90 98 112 179 89 335 -22 145 -20 170 12 233 22 45 41
63 108 109 131 88 165 141 172 266 4 72 1 89 -20 136 -14 30 -41 70 -60 89
-33 34 -366 241 -553 346 -164 92 -358 168 -565 224 -63 17 -116 32 -118 34
-2 2 43 17 100 35 214 66 404 148 593 255 191 108 509 309 543 343 19 20 46
60 60 90 21 47 24 64 20 136 -7 123 -49 187 -178 268 -68 43 -83 60 -111 123
-23 52 -23 43 -1 267 12 123 -13 200 -91 285 -43 47 -108 85 -167 98 -19 4
-87 9 -150 10 -170 2 -211 31 -250 177 -31 116 -63 179 -116 228 -70 64 -123
85 -224 85 -82 0 -89 -2 -195 -52 -170 -81 -212 -74 -323 60 -85 101 -114 123
-194 148 -69 22 -123 23 -191 5z m170 -186 c18 -10 60 -53 93 -94 85 -103 141
-139 248 -156 76 -13 151 4 256 58 68 34 103 45 137 46 89 0 141 -57 169 -184
30 -134 96 -222 209 -278 50 -24 70 -27 196 -32 165 -6 199 -20 236 -96 23
-49 23 -84 -1 -237 -26 -168 46 -318 201 -418 85 -55 109 -87 109 -141 0 -63
-28 -89 -231 -215 -429 -265 -638 -364 -943 -447 -101 -28 -115 -27 -116 12 0
7 -14 45 -30 84 -17 39 -29 72 -28 74 2 1 41 12 87 24 258 66 477 163 777 346
163 99 173 122 99 222 -101 138 -139 248 -138 402 1 152 -13 171 -140 184
-180 19 -353 141 -433 304 -63 131 -81 140 -200 102 -98 -30 -170 -35 -265
-15 -108 21 -188 60 -269 129 -89 76 -113 76 -201 0 -70 -60 -154 -104 -239
-125 -82 -20 -213 -16 -290 10 -123 40 -140 31 -204 -101 -45 -92 -124 -176
-217 -231 -75 -44 -135 -63 -239 -76 -109 -14 -120 -29 -118 -164 1 -56 -5
-127 -12 -157 -17 -75 -68 -182 -124 -259 -25 -36 -46 -75 -46 -88 0 -12 12
-36 28 -53 37 -41 266 -177 437 -260 131 -64 394 -160 478 -175 47 -9 52 -17
31 -57 -9 -18 -26 -60 -38 -94 l-21 -61 -100 28 c-274 78 -518 194 -884 419
-247 151 -271 173 -271 240 0 51 31 93 96 131 112 63 194 178 213 297 7 47 6
86 -5 159 -19 131 -18 163 9 213 37 71 85 90 222 90 130 0 184 13 261 64 72
48 117 118 150 236 34 122 46 143 91 171 58 36 111 31 218 -23 144 -73 243
-81 357 -30 38 17 117 91 173 162 46 58 84 80 138 80 34 0 63 -7 84 -20z
m-167 -1121 l0 -580 -26 3 c-24 3 -39 36 -235 522 -115 286 -209 523 -209 526
0 4 51 10 113 13 125 6 203 24 292 67 33 15 61 29 63 29 1 1 2 -260 2 -580z
m345 511 c47 -15 110 -24 192 -28 l122 -7 -206 -510 c-112 -280 -209 -520
-213 -531 -7 -16 -15 -20 -34 -17 l-26 5 0 579 0 579 48 -24 c26 -13 79 -34
117 -46z m-771 -617 c113 -281 206 -516 206 -521 0 -8 -107 -82 -123 -86 -6
-1 -727 817 -727 825 0 4 15 10 33 13 94 18 256 122 347 224 30 33 56 60 56
59 1 -1 95 -232 208 -514z m1304 446 c87 -96 194 -167 314 -208 l47 -16 -366
-415 c-201 -228 -369 -414 -373 -413 -15 4 -100 64 -100 71 0 12 414 1042 419
1042 2 0 29 -27 59 -61z m462 -441 c9 -40 75 -190 117 -269 9 -17 -313 -190
-465 -250 -92 -37 -225 -80 -230 -75 -3 4 557 646 563 646 2 0 8 -24 15 -52z
m-2344 -128 c65 -74 183 -209 263 -299 162 -183 162 -178 -9 -114 -156 57
-382 171 -518 261 -10 7 -4 26 27 83 22 41 49 103 61 139 11 36 23 71 26 79 6
17 -8 31 150 -149z m1224 -540 c167 -50 299 -189 344 -365 20 -76 20 -142 0
-224 -56 -229 -253 -385 -484 -385 -328 0 -570 315 -480 628 61 216 254 364
474 365 51 1 102 -6 146 -19z m-784 -692 c51 -155 186 -313 329 -385 117 -59
191 -77 315 -77 187 0 342 66 480 204 75 75 132 166 160 255 7 22 15 43 19 47
9 10 251 -48 370 -88 122 -42 260 -102 351 -152 95 -52 502 -302 523 -320 29
-26 42 -86 28 -132 -10 -35 -23 -48 -96 -96 -159 -105 -231 -252 -205 -420 24
-154 24 -189 1 -238 -37 -76 -71 -90 -236 -96 -126 -5 -146 -8 -196 -32 -113
-56 -179 -144 -209 -278 -27 -124 -79 -182 -165 -184 -32 -1 -70 12 -155 53
-107 52 -116 55 -189 54 -131 -1 -202 -39 -301 -159 -74 -90 -109 -114 -171
-114 -60 0 -96 24 -173 118 -75 91 -144 136 -233 152 -87 15 -152 1 -268 -58
-103 -52 -158 -59 -213 -26 -45 26 -67 64 -92 164 -38 149 -91 220 -210 278
-50 24 -68 27 -196 32 -129 5 -144 7 -177 30 -41 28 -77 93 -77 139 0 17 7 75
16 128 18 116 9 193 -31 274 -43 84 -80 124 -170 184 -72 47 -86 61 -96 95
-14 46 -1 106 28 132 26 23 433 272 529 324 165 89 346 157 579 215 61 15 111
27 112 28 1 1 9 -23 19 -51z"/>
<path d="M1132 1866 c-138 -82 -150 -92 -158 -132 -6 -30 0 -44 53 -122 100
-147 140 -283 126 -428 -4 -47 -2 -66 11 -87 22 -32 33 -37 140 -53 190 -29
349 -145 427 -312 57 -120 78 -130 199 -91 78 25 209 30 290 10 86 -21 169
-65 239 -125 88 -76 114 -76 201 -1 147 127 354 173 530 116 74 -24 118 -26
142 -8 9 7 32 47 52 88 88 183 238 293 442 324 137 20 144 28 143 173 -1 59 5
130 11 157 18 71 71 182 112 236 67 87 72 111 33 157 -33 39 -224 152 -257
152 -33 0 -74 -33 -82 -66 -14 -53 13 -84 132 -154 11 -6 9 -15 -12 -46 -64
-98 -115 -265 -116 -375 l0 -56 -52 -11 c-182 -36 -382 -178 -470 -334 -31
-55 -35 -58 -63 -53 -16 3 -80 8 -142 12 -86 4 -129 1 -190 -12 -89 -19 -201
-68 -268 -116 l-45 -33 -30 22 c-61 46 -135 84 -209 108 -94 32 -267 43 -363
24 -70 -13 -66 -16 -118 70 -84 139 -286 278 -456 312 l-51 10 -6 92 c-6 102
-41 212 -101 320 l-35 62 55 33 c51 31 84 72 84 105 0 23 -51 74 -80 81 -19 4
-48 -8 -118 -49z"/>
<path d="M1893 1597 c-150 -150 -163 -166 -163 -198 0 -69 57 -109 117 -84 15
7 97 82 181 167 138 141 152 158 152 190 0 49 -40 88 -89 88 -32 0 -48 -13
-198 -163z"/>
<path d="M2939 1731 c-32 -33 -36 -59 -15 -99 22 -41 310 -322 332 -323 66 -4
108 30 108 86 0 34 -13 49 -165 201 -146 145 -169 164 -198 164 -23 0 -41 -9
-62 -29z"/>
<path d="M2515 1611 c-11 -5 -29 -19 -40 -31 -19 -20 -20 -39 -23 -254 -4
-268 1 -300 54 -322 29 -12 39 -12 68 0 19 8 39 23 45 34 7 13 11 110 11 270
l0 249 -25 27 c-13 14 -28 26 -34 26 -5 0 -15 2 -23 4 -7 3 -22 1 -33 -3z"/>
</g>
</svg>
